<svg xmlns="http://www.w3.org/2000/svg" xml:space="preserve" data-id="lg_RVZV9ubCXzkOOOSFGc" data-version="1" viewBox="481 -0.5 538 69"><g data-padding="20"><g fill="#fcd8e4" transform="translate(10 1.266)scale(.96276)"><g stroke="null"><filter id="a" width="140%" height="140%" x="-20%" y="-20%"><feGaussianBlur in="SourceAlpha"/><feOffset result="oBlur"/><feFlood flood-color="#000" flood-opacity="1"/><feComposite in2="oBlur" operator="in"/><feMerge><feMergeNode/><feMergeNode in="SourceGraphic"/></feMerge></filter><path stroke="none" d="M604.861 53.6q-5.07 0-9.84-1.54-4.78-1.53-8.1-4.43l5.64-8.98q1.23 1.45 3.31 2.53 2.08 1.09 4.47 1.69 2.38.6 4.52.6 2.41 0 3.98-.69 1.56-.7 1.56-1.96 0-1.24-1.2-2.04-1.21-.79-4.46-1.64l-3.14-.84q-6.87-1.87-9.83-5.2-2.95-3.33-2.95-7.89 0-2.86 1.25-5.33t3.5-4.33q2.24-1.85 5.29-2.88 3.04-1.02 6.6-1.02 5.13 0 9.54 1.49 4.42 1.49 7.04 4.12l-5.85 8.74q-1.05-1.24-2.71-2.19t-3.65-1.49-4.01-.54q-1.6 0-2.77.37-1.18.38-1.82 1.03-.65.65-.65 1.49 0 .76.54 1.24t1.79.93 3.39 1.09l3.08.9q6.87 2.02 9.89 4.98 3.01 2.95 3.01 7.62 0 4.19-2.17 7.39-2.17 3.19-6.09 4.99-3.92 1.79-9.16 1.79m37.86 0q-5 0-8.97-2.17-3.96-2.17-6.27-5.92-2.3-3.76-2.3-8.49 0-3.53 1.35-6.54 1.36-3.02 3.8-5.28t5.7-3.51q3.25-1.25 7.05-1.25 3.77 0 7.03 1.06 3.25 1.05 5.81 3.1l-5.12 8.86q-1.54-1.44-3.27-2.11-1.74-.66-3.6-.66-2.17 0-3.71.74t-2.35 2.15q-.82 1.42-.82 3.44 0 2.98 1.84 4.66 1.84 1.67 5.1 1.67 2.08 0 3.96-.78 1.88-.79 3.63-2.41l4.58 9.1q-2.71 2.02-6.31 3.18t-7.13 1.16m29.99-.9h-12.05V21.35h12.05v3.25q1.18-2.14 3.38-3.18t4.85-1.04q1.12 0 1.92.14.8.13 1.58.28l-1.36 12.36q-1.11-.45-2.39-.71-1.28-.25-2.55-.25-2.35 0-3.89 1.26-1.54 1.27-1.54 3.98Zm31.17.9q-5.27 0-9.22-2.08t-6.13-5.82q-2.19-3.74-2.19-8.74 0-3.65 1.28-6.68t3.62-5.23q2.33-2.2 5.52-3.4 3.18-1.21 7-1.21 4.28 0 7.62 1.51 3.33 1.51 5.5 4.2 2.17 2.7 2.95 6.33.79 3.64-.09 7.92h-22.61q.12 1.23 1.04 2.17.92.93 2.46 1.46t3.5.53q2.86 0 5.33-.67 2.47-.66 4.92-2.11l3.49 7.96q-1.38 1.06-3.77 1.93-2.38.88-5.09 1.4-2.71.53-5.13.53m-5.96-21.04h10.49q0-1.63-1.39-2.65-1.39-1.03-3.62-1.03-2.29 0-3.81 1.03-1.52 1.02-1.67 2.65m42.65 21.04q-5.27 0-9.22-2.08t-6.14-5.82q-2.18-3.74-2.18-8.74 0-3.65 1.28-6.68t3.62-5.23q2.33-2.2 5.51-3.4 3.18-1.21 7.01-1.21 4.28 0 7.61 1.51t5.5 4.2q2.17 2.7 2.96 6.33.78 3.64-.09 7.92h-22.61q.12 1.23 1.04 2.17.92.93 2.46 1.46 1.53.53 3.49.53 2.87 0 5.34-.67 2.47-.66 4.91-2.11l3.5 7.96q-1.39 1.06-3.77 1.93-2.38.88-5.09 1.4-2.72.53-5.13.53m-5.97-21.04h10.49q0-1.63-1.38-2.65-1.39-1.03-3.62-1.03-2.29 0-3.81 1.03-1.53 1.02-1.68 2.65m39.52 20.14h-12.06V21.35h12.06v2.89q1.63-1.96 3.88-2.88 2.24-.92 4.8-.92 4.53 0 7.41 1.75 2.87 1.75 4.25 4.55 1.37 2.8 1.37 6V52.7h-12.06V36.54q0-2.5-1.16-3.88-1.16-1.37-3.6-1.37-1.57 0-2.66.67-1.08.66-1.65 1.85-.58 1.19-.58 2.73Zm71.21 0h-28.16V10.49h12.18V41.6h15.98Zm17.54 0h-12.06V21.35h12.06Zm-6.03-35.39q-2.8 0-4.87-1.71-2.06-1.7-2.06-4.69 0-2.98 2.06-4.68 2.07-1.71 4.87-1.71t4.87 1.71q2.06 1.7 2.06 4.68 0 2.99-2.06 4.69-2.07 1.71-4.87 1.71m33.82 36.29q-2.8 0-5.17-.83-2.36-.83-4.04-2.33-1.67-1.51-2.42-3.53l1.63-2.71v8.5h-10.25V9.29h11.99v19.05l-2.77-2.77q2.17-2.69 4.9-3.91t5.89-1.22q4.58 0 8.14 2.17t5.58 5.92q2.02 3.76 2.02 8.49 0 3.83-1.18 6.9-1.17 3.08-3.27 5.23-2.09 2.16-4.91 3.3-2.82 1.15-6.14 1.15m-2.23-10.25q1.69 0 3.06-.77t2.17-2.18q.8-1.42.8-3.38t-.78-3.38q-.79-1.41-2.16-2.18t-3.09-.77-3.09.77-2.15 2.18q-.79 1.42-.79 3.38t.8 3.38q.8 1.41 2.17 2.18t3.06.77m34.97 9.35h-12.06V21.35h12.06v3.25q1.18-2.14 3.38-3.18t4.85-1.04q1.12 0 1.92.14.79.13 1.58.28l-1.36 12.36q-1.11-.45-2.4-.71-1.28-.25-2.54-.25-2.35 0-3.89 1.26-1.54 1.27-1.54 3.98Zm24.84.9q-3.01 0-5.52-1.21-2.5-1.2-4-3.48-1.51-2.27-1.51-5.5 0-2.8 1.37-4.91t4.05-3.45q2.69-1.35 6.65-1.83t9.15-.06l.06 7.18q-2.05-.46-3.92-.56-1.87-.11-3.31.16-1.45.28-2.3.95-.84.68-.84 1.83 0 1.23 1 1.84.99.6 2.59.6 1.44 0 2.61-.48 1.16-.48 1.85-1.49t.69-2.61v-6.39q0-1.45-.57-2.58t-1.93-1.78-3.77-.65-4.78.73q-2.36.72-4.14 2.05l-2.95-8.02q3.13-1.9 6.78-2.85t7.2-.95q4.49 0 8.02 1.43t5.56 4.49q2.04 3.06 2.04 7.95V52.7h-10.25v-3.08q-1.45 1.9-3.98 2.94t-5.85 1.04m39.28-.9h-12.06V21.35h12.06v3.25q1.18-2.14 3.38-3.18t4.85-1.04q1.11 0 1.91.14.8.13 1.59.28l-1.36 12.36q-1.12-.45-2.4-.71-1.28-.25-2.54-.25-2.36 0-3.89 1.26-1.54 1.27-1.54 3.98Zm21.89 13.44q-2.45 0-4.75-.47-2.31-.46-4.15-1.4l2.5-10.01q1 .49 2.24.79 1.23.3 2.35.3 1.35 0 2.48-.5t1.5-1.79l.12-.48-12.06-31.23h13.02l5.85 19.71 5.67-19.71h12.72l-12.66 33.58q-1.66 4.13-3.97 6.58-2.3 2.46-5.08 3.55-2.77 1.08-5.78 1.08" filter="url(#a)" font-family="Geologica" font-size="60.29"/></g><rect width="71.912" height="71.912" x="368.545" y="-425.701" rx="10" ry="10" transform="matrix(.94 0 0 .94 153.92 400.36)" vector-effect="non-scaling-stroke"/></g><path fill="transparent" stroke="transparent" d="M481.5 0h537v68h-537z"/></g></svg>